<?xml version="1.0" standalone="no"?>
<!DOCTYPE svg PUBLIC "-//W3C//DTD SVG 20010904//EN"
 "http://www.w3.org/TR/2001/REC-SVG-20010904/DTD/svg10.dtd">
<svg version="1.0" xmlns="http://www.w3.org/2000/svg"
 width="1345.000000pt" height="1345.000000pt" viewBox="0 0 1345.000000 1345.000000"
 preserveAspectRatio="xMidYMid meet">
<metadata>
Created by potrace 1.11, written by Peter Selinger 2001-2013
</metadata>
<g transform="translate(0.000000,1345.000000) scale(0.100000,-0.100000)"
fill="#000000" stroke="none">
<path d="M918 13445 c-2 -2 -25 -6 -52 -9 -27 -4 -53 -9 -56 -11 -4 -2 -20 -6
-36 -9 -134 -24 -346 -156 -481 -300 -126 -135 -222 -309 -247 -452 -3 -16 -9
-50 -14 -75 -12 -63 -13 -244 -1 -304 5 -27 12 -63 15 -79 9 -50 43 -144 81
-221 35 -72 155 -235 173 -235 5 0 324 315 709 700 763 762 717 709 650 760
-18 14 -38 31 -45 38 -52 50 -249 148 -339 168 -5 1 -32 8 -60 14 -43 11 -288
23 -297 15z"/>
<path d="M2925 13431 c-75 -18 -150 -53 -218 -100 -34 -23 -2358 -2338 -2530
-2519 -56 -61 -120 -174 -142 -257 -35 -128 -26 -287 23 -414 39 -100 93 -164
389 -461 l293 -295 1667 1668 1668 1667 -305 302 c-323 320 -358 349 -492 394
-97 34 -252 40 -353 15z"/>
<path d="M5527 13133 c-2 -1 -22 -5 -46 -8 -60 -8 -155 -42 -225 -83 -49 -28
-521 -494 -2442 -2416 l-2381 -2381 -42 -86 c-23 -47 -48 -115 -56 -150 -20
-93 -13 -257 15 -339 43 -129 88 -188 324 -424 250 -251 294 -286 421 -331
109 -39 292 -42 402 -7 161 52 -2 -105 2574 2471 2553 2552 2415 2410 2469
2563 43 125 43 285 -1 413 -42 120 -70 156 -304 394 -282 286 -341 329 -505
368 -57 13 -195 24 -203 16z"/>
<path d="M4489 8971 c-296 -297 -539 -543 -539 -548 0 -9 4463 -4473 4472
-4473 9 0 1088 1080 1088 1088 0 10 -4465 4472 -4474 4472 -4 0 -251 -243
-547 -539z"/>
<path d="M11985 6555 c-85 -22 -122 -39 -195 -88 -71 -47 -4738 -4716 -4788
-4790 -106 -158 -137 -377 -78 -562 43 -135 82 -187 321 -426 121 -121 244
-236 273 -256 219 -145 499 -141 724 10 25 18 1110 1096 2410 2397 2549 2551
2411 2406 2461 2565 32 102 31 292 -3 385 -29 81 -62 142 -109 200 -60 74
-433 443 -481 476 -155 107 -350 139 -535 89z"/>
<path d="M11050 2405 l-1664 -1665 279 -280 c282 -282 362 -352 451 -392 200
-88 438 -70 614 47 45 30 445 424 1318 1297 688 689 1264 1269 1278 1288 150
204 160 509 23 721 -26 40 -149 172 -333 356 -160 161 -293 293 -296 293 -3 0
-754 -749 -1670 -1665z"/>
<path d="M12448 1010 c-384 -384 -698 -702 -698 -706 0 -13 79 -83 142 -125
229 -156 492 -200 796 -135 133 29 300 128 436 260 228 220 326 445 321 736
-2 126 -23 254 -54 318 -59 127 -107 209 -159 274 -34 43 -68 78 -75 77 -7 0
-326 -315 -709 -699z"/>
</g>
</svg>
